<?xml version="1.0" encoding="UTF-8"?>
<svg xmlns="http://www.w3.org/2000/svg" xmlns:xlink="http://www.w3.org/1999/xlink" width="20px" height="20px" viewBox="0 0 20 20" version="1.1">
<g id="surface1">
<path style=" stroke:none;fill-rule:evenodd;fill:rgb(41.176471%,62.352941%,29.803922%);fill-opacity:1;" d="M 10 20 C 4.476562 20 0 15.523438 0 10 C 0 4.476562 4.476562 0 10 0 C 15.523438 0 20 4.476562 20 10 C 20 15.523438 15.523438 20 10 20 Z M 4.335938 12.257812 C 3.890625 11.804688 3.890625 11.074219 4.335938 10.621094 L 4.929688 10.039062 C 5.128906 9.832031 5.40625 9.71875 5.695312 9.722656 C 5.980469 9.726562 6.253906 9.84375 6.449219 10.054688 L 7.492188 11.132812 C 7.589844 11.238281 7.730469 11.296875 7.875 11.296875 C 8.023438 11.296875 8.164062 11.238281 8.261719 11.132812 L 13.5625 5.667969 C 13.757812 5.460938 14.039062 5.339844 14.324219 5.335938 C 14.617188 5.335938 14.894531 5.453125 15.09375 5.660156 L 15.664062 6.238281 C 16.101562 6.6875 16.101562 7.402344 15.664062 7.851562 L 8.632812 15.003906 C 8.429688 15.210938 8.160156 15.324219 7.875 15.328125 C 7.585938 15.328125 7.3125 15.214844 7.113281 15.011719 Z M 4.335938 12.257812 "/>
</g>
</svg>
