<?xml version="1.0" encoding="UTF-8"?>
<svg xmlns="http://www.w3.org/2000/svg" xmlns:xlink="http://www.w3.org/1999/xlink" width="20px" height="20px" viewBox="0 0 20 20" version="1.1">
<g id="surface1">
<path style=" stroke:none;fill-rule:nonzero;fill:rgb(78.823529%,21.176471%,21.176471%);fill-opacity:1;" d="M 20 10 C 20 15.523438 15.523438 20 10 20 C 4.476562 20 0 15.523438 0 10 C 0 4.476562 4.476562 0 10 0 C 15.523438 0 20 4.476562 20 10 Z M 20 10 "/>
<path style=" stroke:none;fill-rule:nonzero;fill:rgb(100%,100%,100%);fill-opacity:1;" d="M 15.671875 14.125 L 11.546875 10 L 15.65625 5.875 C 15.71875 5.8125 15.71875 5.71875 15.65625 5.65625 L 14.328125 4.328125 C 14.265625 4.265625 14.171875 4.265625 14.109375 4.328125 L 10 8.453125 L 5.890625 4.34375 C 5.828125 4.28125 5.734375 4.28125 5.671875 4.34375 L 4.34375 5.671875 C 4.28125 5.734375 4.28125 5.828125 4.34375 5.890625 L 8.4375 10 L 4.328125 14.109375 C 4.265625 14.171875 4.265625 14.265625 4.328125 14.328125 L 5.65625 15.65625 C 5.71875 15.71875 5.828125 15.71875 5.875 15.65625 L 10 11.546875 L 14.109375 15.65625 C 14.171875 15.71875 14.28125 15.71875 14.34375 15.671875 L 15.671875 14.34375 C 15.734375 14.28125 15.734375 14.1875 15.671875 14.125 Z M 15.671875 14.125 "/>
</g>
</svg>
