<?xml version="1.0" encoding="UTF-8"?>
<svg xmlns="http://www.w3.org/2000/svg" xmlns:xlink="http://www.w3.org/1999/xlink" width="25px" height="25px" viewBox="0 0 25 25" version="1.1">
<g id="surface1">
<path style=" stroke:none;fill-rule:nonzero;fill:rgb(0%,0%,0%);fill-opacity:1;" d="M 17.578125 3.496094 C 17.398438 3.496094 17.222656 3.507812 17.046875 3.519531 L 17.046875 1.945312 C 17.046875 0.871094 16.171875 0 15.101562 0 L 3.074219 0 C 2 0 1.128906 0.871094 1.128906 1.945312 L 1.128906 23.054688 C 1.128906 24.128906 2 25 3.074219 25 L 15.101562 25 C 16.171875 25 17.046875 24.128906 17.046875 23.054688 L 17.046875 16.054688 C 17.222656 16.070312 17.402344 16.078125 17.578125 16.078125 C 21.046875 16.078125 23.871094 13.257812 23.871094 9.789062 C 23.871094 6.320312 21.046875 3.496094 17.578125 3.496094 Z M 7.46875 1.859375 L 10.28125 1.859375 C 10.628906 1.859375 10.910156 2.140625 10.910156 2.488281 C 10.910156 2.832031 10.628906 3.113281 10.28125 3.113281 L 7.46875 3.113281 C 7.121094 3.113281 6.84375 2.832031 6.84375 2.488281 C 6.84375 2.140625 7.121094 1.859375 7.46875 1.859375 Z M 9.714844 22.460938 C 9.714844 22.804688 9.433594 23.085938 9.085938 23.085938 C 8.742188 23.085938 8.460938 22.804688 8.460938 22.460938 L 8.460938 21.832031 L 9.714844 21.832031 Z M 15.792969 20.582031 L 2.382812 20.582031 L 2.382812 4.882812 C 2.382812 4.5 2.691406 4.191406 3.074219 4.191406 L 14.71875 4.191406 C 12.683594 5.234375 11.289062 7.351562 11.289062 9.789062 C 11.289062 10.535156 11.417969 11.261719 11.671875 11.957031 L 10.640625 16.019531 C 10.578125 16.273438 10.652344 16.539062 10.835938 16.722656 C 10.976562 16.863281 11.164062 16.9375 11.355469 16.9375 C 11.417969 16.9375 11.476562 16.929688 11.539062 16.914062 L 15.792969 15.835938 Z M 17.578125 14.605469 C 17.066406 14.605469 16.558594 14.523438 16.074219 14.363281 C 15.9375 14.320312 15.796875 14.316406 15.660156 14.347656 L 12.375 15.183594 L 13.160156 12.089844 C 13.199219 11.933594 13.1875 11.773438 13.125 11.625 C 12.886719 11.042969 12.761719 10.421875 12.761719 9.789062 C 12.761719 7.132812 14.921875 4.972656 17.578125 4.972656 C 20.234375 4.972656 22.398438 7.132812 22.398438 9.789062 C 22.398438 12.445312 20.234375 14.605469 17.578125 14.605469 Z M 17.578125 14.605469 "/>
<path style=" stroke:none;fill-rule:nonzero;fill:rgb(0%,0%,0%);fill-opacity:1;" d="M 17.695312 9.082031 C 16.941406 8.851562 16.800781 8.75 16.800781 8.441406 C 16.800781 8.140625 17.296875 8.058594 17.59375 8.058594 C 17.875 8.058594 18.210938 8.148438 18.410156 8.277344 C 18.453125 8.304688 18.503906 8.316406 18.554688 8.304688 C 18.601562 8.292969 18.644531 8.265625 18.671875 8.222656 L 19.0625 7.617188 C 19.089844 7.578125 19.097656 7.523438 19.089844 7.476562 C 19.078125 7.425781 19.050781 7.382812 19.007812 7.355469 C 18.765625 7.203125 18.464844 7.085938 18.140625 7.019531 L 18.140625 6.421875 C 18.140625 6.320312 18.054688 6.234375 17.949219 6.234375 L 17.234375 6.234375 C 17.183594 6.234375 17.132812 6.253906 17.097656 6.289062 C 17.0625 6.324219 17.042969 6.371094 17.042969 6.421875 L 17.042969 7.015625 C 16.222656 7.179688 15.703125 7.726562 15.703125 8.441406 C 15.703125 9.621094 16.710938 9.929688 17.378906 10.128906 C 18.113281 10.351562 18.21875 10.449219 18.214844 10.691406 C 18.214844 10.75 18.199219 10.824219 18.097656 10.894531 C 17.960938 10.988281 17.730469 11.042969 17.460938 11.042969 C 17.460938 11.042969 17.457031 11.042969 17.457031 11.042969 C 17.109375 11.042969 16.71875 10.886719 16.503906 10.660156 C 16.433594 10.585938 16.3125 10.582031 16.238281 10.65625 L 15.714844 11.148438 C 15.640625 11.21875 15.636719 11.339844 15.710938 11.414062 C 16.039062 11.765625 16.527344 12.015625 17.042969 12.101562 L 17.042969 12.679688 C 17.042969 12.785156 17.128906 12.867188 17.230469 12.867188 L 17.949219 12.867188 C 18.054688 12.867188 18.140625 12.785156 18.140625 12.679688 L 18.140625 12.058594 C 18.359375 12 18.554688 11.910156 18.722656 11.796875 C 19.101562 11.53125 19.3125 11.140625 19.3125 10.695312 C 19.320312 9.574219 18.34375 9.277344 17.695312 9.082031 Z M 17.695312 9.082031 "/>
</g>
</svg>
